<?xml version="1.0" encoding="UTF-8" standalone="no"?>
<!-- Generator: Adobe Illustrator 18.0.0, SVG Export Plug-In . SVG Version: 6.00 Build 0)  -->

<svg
   xmlns:dc="http://purl.org/dc/elements/1.1/"
   xmlns:cc="http://creativecommons.org/ns#"
   xmlns:rdf="http://www.w3.org/1999/02/22-rdf-syntax-ns#"
   xmlns:svg="http://www.w3.org/2000/svg"
   xmlns="http://www.w3.org/2000/svg"
   xmlns:sodipodi="http://sodipodi.sourceforge.net/DTD/sodipodi-0.dtd"
   xmlns:inkscape="http://www.inkscape.org/namespaces/inkscape"
   version="1.1"
   id="Layer_1"
   x="0px"
   y="0px"
   viewBox="0 0 92.65579 99.9"
   enable-background="new 0 0 320.1 99.9"
   xml:space="preserve"
   sodipodi:docname="Airbnb.svg"
   inkscape:version="0.92.3 (2405546, 2018-03-11)"
   width="92.655792"
   height="99.900002"><metadata
   id="metadata9"><rdf:RDF><cc:Work
       rdf:about=""><dc:format>image/svg+xml</dc:format><dc:type
         rdf:resource="http://purl.org/dc/dcmitype/StillImage" /><dc:title></dc:title></cc:Work></rdf:RDF></metadata><defs
   id="defs7" /><sodipodi:namedview
   pagecolor="#ffffff"
   bordercolor="#666666"
   borderopacity="1"
   objecttolerance="10"
   gridtolerance="10"
   guidetolerance="10"
   inkscape:pageopacity="0"
   inkscape:pageshadow="2"
   inkscape:window-width="1366"
   inkscape:window-height="713"
   id="namedview5"
   showgrid="false"
   inkscape:zoom="3.0219371"
   inkscape:cx="97.031334"
   inkscape:cy="42.347447"
   inkscape:window-x="0"
   inkscape:window-y="27"
   inkscape:window-maximized="1"
   inkscape:current-layer="g3759"
   inkscape:snap-center="true"
   inkscape:snap-object-midpoints="true"
   inkscape:snap-page="true"
   fit-margin-top="0"
   fit-margin-left="0"
   fit-margin-right="0"
   fit-margin-bottom="0"><inkscape:grid
     type="xygrid"
     id="grid3711"
     originx="0"
     originy="0" /></sodipodi:namedview>
<g
   id="g3759"
   inkscape:groupmode="layer"
   style="display:inline"><path
     id="path2"
     d="m 46.5,0 c -5,0 -9.500781,2.2 -12.800781,6 -1.5,1.8 -2.59961,3.7 -3.59961,5.5 -0.8,1.6 -1.60039,3.199219 -2.40039,4.699219 l -0.298828,0.601562 C 19.700391,31.800781 12.200781,47 5.3007812,62 l -0.1015624,0.199219 c -0.7000002,1.6 -1.4988282,3.301562 -2.2988282,5.101562 -0.5,1.1 -1,2.29961 -1.5,3.59961 -1.29999976,3.7 -1.70117185,7.198828 -1.20117185,10.798828 1.10000005,7.5 6.09999845,13.801562 13.00000025,16.601562 2.6,1.1 5.301562,1.59961 8.101562,1.59961 0.8,0 1.79961,-0.101172 2.59961,-0.201172 3.3,-0.4 6.7,-1.498438 10,-3.398438 4.1,-2.3 8.00039,-5.60039 12.40039,-10.40039 4.4,4.8 8.398438,8.10039 12.398438,10.40039 3.3,1.9 6.7,2.998438 10,3.398438 0.8,0.1 1.801562,0.201172 2.601562,0.201172 2.8,0 5.59961,-0.49961 8.09961,-1.59961 7,-2.8 11.9,-9.201562 13,-16.601562 C 93.200391,78.199219 92.8,74.7 91.5,71 91,69.8 90.5,68.500391 90,67.400391 c -0.8,-1.8 -1.600781,-3.49961 -2.300781,-5.09961 l -0.09961,-0.101562 C 80.699609,47.199219 73.3,32 65.5,17 l -0.300781,-0.599609 c -0.8,-1.5 -1.598438,-3.101172 -2.398438,-4.701172 -1,-1.8000027 -2.001562,-3.7000006 -3.601562,-5.5000002 C 55.999219,2.1992188 51.4,0 46.5,0 Z m 0.09961,6.5996094 c 3.1,0 5.9,1.3011742 8,3.7011716 1.1,1.3 2.000782,2.798438 2.800782,4.398438 0.8,1.5 1.60039,3.101562 2.40039,4.601562 l 0.298828,0.59961 c 7.6,14.9 15.000391,30.1 21.900391,45 V 65 c 0.8,1.6 1.500781,3.4 2.300781,5 0.5,1.2 0.998828,2.199219 1.298828,3.199219 0.8,2.6 1.101172,5.101172 0.701172,7.701172 -0.7,5.2 -4.201562,9.699218 -9.101562,11.699218 -2.4,1 -4.99961,1.3 -7.59961,1 C 67.099601,93.299609 64.6,92.5 62,91 58.4,89 54.799609,85.900781 50.599609,81.300781 c 6.6,-8.1 10.59961,-15.501562 12.09961,-22.101562 0.7,-3.1 0.8,-5.9 0.5,-8.5 -0.4,-2.5 -1.299219,-4.798828 -2.699219,-6.798828 -3.1,-4.5 -8.299609,-7.09961 -14.099609,-7.09961 -5.8,0 -10.99961,2.69961 -14.09961,7.09961 -1.4,2 -2.301172,4.298828 -2.701172,6.798828 -0.4,2.6 -0.3,5.5 0.5,8.5 1.5,6.6 5.59961,14.101172 12.09961,22.201172 -4.1,4.6 -7.798438,7.699218 -11.398438,9.699218 -2.6,1.5 -5.101562,2.29961 -7.601562,2.59961 -2.7,0.3 -5.29961,-0.1 -7.59961,-1 C 10.699609,90.699219 7.2,86.2 6.5,81 6.2,78.5 6.4003906,75.999219 7.4003906,73.199219 7.7003906,72.199219 8.1992179,71.2 8.6992188,70 9.3992179,68.4 10.2,66.7 11,65 l 0.09961,-0.199219 c 6.9,-14.9 14.3,-30.10039 22,-44.90039 l 0.300782,-0.59961 c 0.8,-1.5 1.60039,-3.101562 2.40039,-4.601562 0.8,-1.6 1.698828,-3.098438 2.798828,-4.398438 2.1,-2.3999975 4.9,-3.7011716 8,-3.7011716 z M 46.400391,42.900391 c 3.7,0 6.998828,1.60039 8.798828,4.40039 0.8,1.2 1.401562,2.599219 1.601562,4.199219 0.3,1.8 0.199219,3.899609 -0.300781,6.099609 -1.2,5.3 -4.699609,11.69961 -10.099609,18.59961 -5.4,-6.8 -8.89961,-13.19961 -10.09961,-18.59961 C 35.800781,55.299609 35.7,53.3 36,51.5 c 0.2,-1.6 0.799609,-2.999219 1.599609,-4.199219 1.9,-2.7 5.100782,-4.40039 8.800782,-4.40039 z"
     inkscape:connector-curvature="0" /><rect
     style="fill:none;stroke-width:0.98945493"
     id="rect3713"
     width="92.655792"
     height="99.900002"
     x="0"
     y="0" /></g>
</svg>